<svg width="104" height="94" viewBox="0 0 104 94" fill="none" xmlns="http://www.w3.org/2000/svg">
<path fill-rule="evenodd" clip-rule="evenodd" d="M71.2465 75.142C73.1004 73.1825 74.2872 70.6951 74.6395 68.0307L94.8545 76.9407C95.844 77.378 96.9279 77.5631 98.0079 77.4792C99.0878 77.3952 100.129 77.0449 101.038 76.46C101.947 75.8752 102.694 75.0743 103.211 74.1303C103.728 73.1862 104 72.1289 104 71.0545V22.9455C103.999 21.8719 103.728 20.8155 103.211 19.8723C102.694 18.929 101.948 18.1287 101.04 17.544C100.132 16.9593 99.0915 16.6087 98.0125 16.5241C96.9334 16.4394 95.8502 16.6234 94.861 17.0593L74.6395 25.9693C74.2264 22.8687 72.6914 20.0228 70.3201 17.9614C67.9489 15.9 64.9031 14.7637 61.75 14.7641H27.768L32.409 21.2112H61.75C63.4739 21.2112 65.1272 21.8905 66.3462 23.0996C67.5652 24.3087 68.25 25.9485 68.25 27.6584V66.3416C68.2512 67.5187 67.9275 68.6736 67.314 69.6812L71.2465 75.142ZM9.282 22.3717C8.42298 22.9652 7.72137 23.756 7.23696 24.6765C6.75256 25.597 6.49972 26.6201 6.5 27.6584V66.3416C6.5 68.0515 7.18482 69.6913 8.40381 70.9004C9.62279 72.1095 11.2761 72.7888 13 72.7888H45.591L50.232 79.2359H13C9.55219 79.2359 6.24558 77.8774 3.80761 75.4593C1.36964 73.0411 0 69.7614 0 66.3416V27.6584C0 23.3066 2.171 19.4576 5.5055 17.1237L9.2755 22.3717H9.282ZM97.5 71.048L74.75 61.0226V32.9774L97.5 22.9455V71.0545V71.048ZM68.8545 94L3.8545 3.73937L9.1455 0L74.1455 90.2606L68.8545 94Z" fill="#D6D6D6"/>
</svg>
