<svg width="21" height="18" viewBox="0 0 21 18" fill="none" xmlns="http://www.w3.org/2000/svg">
<path d="M18.9554 4.12187C19.6508 4.50076 19.6508 5.49924 18.9554 5.87813L14.0978 8.52465C13.4315 8.8877 12.6194 8.40536 12.6194 7.64652L12.6194 2.35348C12.6194 1.59464 13.4315 1.1123 14.0978 1.47535L18.9554 4.12187Z" fill="#9A9A9A"/>
<path d="M1.49252 5C1.49252 4.44772 1.94024 4 2.49252 4H13.1492V6H2.49252C1.94024 6 1.49252 5.55228 1.49252 5Z" fill="#9A9A9A"/>
<path d="M2.0446 13.8781C1.34917 13.4992 1.34916 12.5008 2.0446 12.1219L6.90217 9.47535C7.56853 9.1123 8.38059 9.59464 8.38059 10.3535V15.6465C8.38059 16.4054 7.56853 16.8877 6.90217 16.5246L2.0446 13.8781Z" fill="#9A9A9A"/>
<path d="M19.5074 13C19.5074 13.5523 19.0597 14 18.5074 14L7.85073 14V12L18.5074 12C19.0597 12 19.5074 12.4477 19.5074 13Z" fill="#9A9A9A"/>
</svg>
