<svg xmlns="http://www.w3.org/2000/svg" width="17" height="19" fill="none" viewBox="0 0 17 19">
  <path fill="#C4C4C4" d="M1.902 3.335A3.597 3.597 0 015.49 0h3.703a6 6 0 014.191 1.707l.685.668.624.61A6 6 0 0116.5 7.276v.875c0 3.776-3.445 6.613-7.15 5.89l-1.833-.359a6 6 0 01-4.404-3.619L2.2 7.834a6 6 0 01-.43-2.707l.131-1.792z"/>
  <path fill="#9A9A9A" d="M.69 3a3 3 0 013-3h3.717c.656 0 1.188.532 1.188 1.188a5.937 5.937 0 005.937 5.937h.65c.728 0 1.318.59 1.318 1.318V16a3 3 0 01-3 3H3.69a3 3 0 01-3-3V3z"/>
</svg>
