<svg width="16" height="19" viewBox="0 0 16 19" fill="none" xmlns="http://www.w3.org/2000/svg">
<rect x="6" y="13" width="4" height="6" rx="1" fill="#9A9A9A"/>
<rect x="5" y="1.00003" width="6" height="10" rx="3" fill="#9A9A9A"/>
<path d="M1.61439 9.2941C0.810815 9.45695 0.278854 10.2487 0.587189 11.0084C1.09047 12.2485 1.90013 13.3503 2.9504 14.205C4.38706 15.3741 6.18492 16.0085 8.03718 15.9999C9.88944 15.9913 11.6813 15.3402 13.1071 14.1578C14.1493 13.2933 14.9487 12.1841 15.4405 10.9394C15.7417 10.1768 15.2024 9.39007 14.3974 9.23469C13.5923 9.07932 12.8317 9.62373 12.4489 10.3488C12.1427 10.9288 11.7238 11.4476 11.2116 11.8723C10.315 12.6159 9.18818 13.0254 8.02338 13.0308C6.85858 13.0362 5.72799 12.6373 4.82453 11.902C4.30843 11.482 3.88473 10.9671 3.57314 10.39C3.18361 9.66857 2.41797 9.13125 1.61439 9.2941Z" fill="#9A9A9A"/>
</svg>
