<svg xmlns="http://www.w3.org/2000/svg" width="21" height="19" fill="none" viewBox="0 0 21 19">
  <path fill="#9A9A9A" d="M13.65 1.315v16.27c0 1.133-1.338 1.733-2.184.982l-4.717-4.194a.787.787 0 00-.522-.2H2.361A2.363 2.363 0 010 11.812V7.09a2.363 2.363 0 012.362-2.362h3.864a.787.787 0 00.523-.2L11.465.335c.847-.754 2.185-.154 2.185.98zm4.192 1.73a.787.787 0 011.101.164A10.457 10.457 0 0121 9.453a10.458 10.458 0 01-2.058 6.243.787.787 0 01-1.265-.937 8.881 8.881 0 001.748-5.306 8.881 8.881 0 00-1.748-5.307.787.787 0 01.165-1.102zM15.9 5.64a.788.788 0 011.068.318 7.322 7.322 0 01.882 3.495 7.322 7.322 0 01-.882 3.494.786.786 0 01-1.304.122.787.787 0 01-.082-.872c.441-.816.693-1.749.693-2.744 0-.996-.252-1.93-.693-2.745A.787.787 0 0115.9 5.64z"/>
</svg>
