<svg width="91" height="83" viewBox="0 0 91 83" fill="none" xmlns="http://www.w3.org/2000/svg">
<path d="M0 26.0877L6.00887 32.1329C8.15065 29.9782 10.4794 28.0714 12.9017 26.3228L6.82904 20.2135C4.44929 22.0176 2.13753 23.9329 0 26.0877ZM22.0169 11.8297L10.2584 0L4.24956 6.04522L80.7416 83L86.7504 76.9548L65.4517 55.5271L69.5992 51.3588C64.8405 46.6084 58.7711 43.4086 52.1803 42.1755L42.4998 32.4364C54.3518 31.6199 66.5056 35.6343 75.3446 44.5226L81.3535 38.4774C69.0383 26.0834 51.3474 21.6499 35.0843 24.9761L28.6038 18.4563C34.0728 16.7345 39.7694 15.8552 45.5 15.8484C60.5307 15.8484 74.5542 21.6328 84.9911 32.1329L91 26.0877C78.961 13.9716 62.7999 7.29788 45.5 7.29788C37.4602 7.32481 29.496 8.86174 22.0169 11.8297V11.8297ZM9.64649 38.4774L15.6554 44.5226C18.2598 41.9254 21.2017 39.6949 24.4009 37.8917L18.2008 31.6541C15.1539 33.5822 12.2727 35.8395 9.64649 38.4774V38.4774ZM21.4008 51.363L27.4096 57.4083C30.3503 54.4498 33.9327 52.4874 37.7318 51.3032L31.1152 44.6466C27.5024 46.2803 24.2117 48.5554 21.4008 51.363V51.363ZM53.9524 67.6219L45.0283 58.6438C43.3917 58.7321 41.8156 59.2955 40.4906 60.2658C39.1655 61.2362 38.1483 62.572 37.5618 64.1117C36.9754 65.6514 36.845 67.329 37.1862 68.9417C37.5274 70.5544 38.3258 72.0331 39.4847 73.199C40.6436 74.365 42.1134 75.1681 43.7164 75.5114C45.3194 75.8547 46.9869 75.7234 48.5174 75.1335C50.0478 74.5435 51.3755 73.5201 52.3401 72.1871C53.3046 70.854 53.8646 69.2683 53.9524 67.6219Z" fill="#D6D6D6"/>
</svg>
